<?xml version="1.0" encoding="iso-8859-1"?>
<!-- Generator: Adobe Illustrator 19.0.0, SVG Export Plug-In . SVG Version: 6.00 Build 0)  -->
<svg version="1.1" id="Capa_1" xmlns="http://www.w3.org/2000/svg" xmlns:xlink="http://www.w3.org/1999/xlink" x="0px" y="0px"
	 viewBox="0 0 490 490" style="enable-background:new 0 0 490 490;" xml:space="preserve">
<g>
	<path d="M427.978,106.769C427.978,47.892,380.086,0,321.209,0C262.331,0,214.44,47.892,214.44,106.769
		c0,55.434,42.455,101.123,96.561,106.278v256.536H62.022V490h304.745v-20.417h-35.35V213.047
		C385.522,207.892,427.978,162.203,427.978,106.769z M321.209,193.121c-47.613,0-86.352-38.739-86.352-86.352
		c0-47.612,38.74-86.352,86.352-86.352c47.612,0,86.352,38.741,86.352,86.352C407.561,154.382,368.82,193.121,321.209,193.121z"/>
	<rect x="311" y="27.426" width="20.417" height="19.858"/>
	<rect x="311" y="166.255" width="20.417" height="19.858"/>
	<rect x="380.694" y="96.561" width="19.858" height="20.417"/>
	<rect x="241.865" y="96.561" width="19.858" height="20.417"/>
	<path d="M327.18,115.044l-44.053,31.78l-11.943-16.547l44.053-31.782L327.18,115.044z"/>
	<path d="M99.387,448.818H259.67c5.642,0,10.208-4.566,10.208-10.208V299.541c0-1.257-0.383-4.476-2.471-6.651
		c-0.008-0.008-0.014-0.019-0.022-0.028l-29.548-34.124c-1.935-2.243-4.755-3.529-7.717-3.529H128.935
		c-2.96,0-5.782,1.286-7.715,3.529L91.67,292.862c-0.01,0.011-0.018,0.024-0.028,0.036c-0.51,0.594-2.464,2.92-2.464,6.643V438.61
		C89.178,444.252,93.745,448.818,99.387,448.818z M133.601,275.625h91.854l11.873,13.708H121.728L133.601,275.625z M109.595,309.75
		h139.867v118.652H109.595V309.75z"/>
</g>
</svg>
